<svg width="600" height="467" viewBox="0 0 600 467" fill="none" xmlns="http://www.w3.org/2000/svg">
<g id="taters 1" clip-path="url(#clip0_2_2)">
<path id="Vector" d="M324.379 83.1259C335.251 90.6365 345.623 98.9109 355.371 107.822C439.722 183.946 464.965 300.297 412.73 372.603C393.985 398.572 364.743 411.683 325.879 411.683C271.894 411.683 197.664 384.696 122.185 337.596C119.686 336.195 116.561 334.158 113.437 332.249C52.579 292.914 11.8402 230.665 2.09293 161.414C-5.03011 111.004 6.2168 64.2857 32.9594 33.3522C52.0792 11.2023 79.4466 0 114.312 0C197.539 0 296.137 63.6492 324.379 83.1259Z" fill="black"/>
<path id="Vector_2" d="M590.181 175.417C563.563 122.334 502.33 89.4908 430.35 89.4908C413.105 89.4908 395.86 91.4003 378.614 95.092C455.343 168.416 483.585 273.564 451.844 352.871L441.472 374.13C438.723 378.713 435.973 383.296 432.849 387.624C366.243 480.17 219.033 425.177 121.435 366.747C121.685 367.893 122.185 368.911 122.56 370.057C145.553 427.977 214.16 466.931 293.013 466.931C337.626 466.931 381.988 454.074 421.228 430.014C530.697 362.419 632.544 260.071 590.181 175.417Z" fill="black"/>
<path id="e1" d="M183 211C183 218.18 177.18 224 170 224C162.82 224 157 218.18 157 211C157 203.82 162.82 198 170 198C177.18 198 183 203.82 183 211Z" fill="#F5F5F5"/>
<path id="e2" d="M264 207C264 214.18 258.18 220 251 220C243.82 220 238 214.18 238 207C238 199.82 243.82 194 251 194C258.18 194 264 199.82 264 207Z" fill="#F5F5F5"/>
<path id="e3" d="M292 262C292 269.18 286.18 275 279 275C271.82 275 266 269.18 266 262C266 254.82 271.82 249 279 249C286.18 249 292 254.82 292 262Z" fill="#F5F5F5"/>
<path id="e4" d="M375 242C375 249.18 369.18 255 362 255C354.82 255 349 249.18 349 242C349 234.82 354.82 229 362 229C369.18 229 375 234.82 375 242Z" fill="#F5F5F5"/>
<path id="e6" d="M299 332C299 339.18 293.18 345 286 345C278.82 345 273 339.18 273 332C273 324.82 278.82 319 286 319C293.18 319 299 324.82 299 332Z" fill="#F5F5F5"/>
<path id="e7" d="M476 176C476 183.18 470.18 189 463 189C455.82 189 450 183.18 450 176C450 168.82 455.82 163 463 163C470.18 163 476 168.82 476 176Z" fill="#F5F5F5"/>
<path id="e8" d="M520 285C520 292.18 514.18 298 507 298C499.82 298 494 292.18 494 285C494 277.82 499.82 272 507 272C514.18 272 520 277.82 520 285Z" fill="#F5F5F5"/>
<path id="e9" d="M463 364C463 371.18 457.18 377 450 377C442.82 377 437 371.18 437 364C437 356.82 442.82 351 450 351C457.18 351 463 356.82 463 364Z" fill="#F5F5F5"/>
<path id="e5" d="M188 298C188 305.18 182.18 311 175 311C167.82 311 162 305.18 162 298C162 290.82 167.82 285 175 285C182.18 285 188 290.82 188 298Z" fill="#F5F5F5"/>
</g>
<defs>
<clipPath id="clip0_2_2">
<rect width="600" height="467" fill="white"/>
</clipPath>
</defs>
</svg>
